<mxfile host="app.diagrams.net" agent="Mozilla/5.0 (Windows NT 10.0; Win64; x64) AppleWebKit/537.36 (KHTML, like Gecko) Chrome/126.0.0.0 Safari/537.36" version="26.2.12">
  <diagram name="Page-1" id="c7488fd3-1785-93aa-aadb-54a6760d102a">
    <mxGraphModel dx="1867" dy="904" grid="1" gridSize="10" guides="1" tooltips="1" connect="1" arrows="1" fold="1" page="1" pageScale="1" pageWidth="1100" pageHeight="850" background="none" math="0" shadow="0">
      <root>
        <mxCell id="0" />
        <mxCell id="1" parent="0" />
        <mxCell id="hchk1diLV61uI37QfvOI-3" value="Generate PDF" style="swimlane;childLayout=stackLayout;resizeParent=1;resizeParentMax=0;horizontal=0;startSize=20;horizontalStack=0;html=1;" vertex="1" parent="1">
          <mxGeometry x="40" y="40" width="1480" height="750" as="geometry" />
        </mxCell>
        <mxCell id="hchk1diLV61uI37QfvOI-4" value="Merchant Apps" style="swimlane;startSize=20;horizontal=0;html=1;" vertex="1" parent="hchk1diLV61uI37QfvOI-3">
          <mxGeometry x="20" width="1460" height="150" as="geometry" />
        </mxCell>
        <mxCell id="hchk1diLV61uI37QfvOI-13" style="edgeStyle=orthogonalEdgeStyle;rounded=0;orthogonalLoop=1;jettySize=auto;html=1;" edge="1" parent="hchk1diLV61uI37QfvOI-4" source="hchk1diLV61uI37QfvOI-11" target="hchk1diLV61uI37QfvOI-12">
          <mxGeometry relative="1" as="geometry" />
        </mxCell>
        <mxCell id="hchk1diLV61uI37QfvOI-11" value="" style="ellipse;whiteSpace=wrap;html=1;aspect=fixed;" vertex="1" parent="hchk1diLV61uI37QfvOI-4">
          <mxGeometry x="50" y="60" width="30" height="30" as="geometry" />
        </mxCell>
        <mxCell id="hchk1diLV61uI37QfvOI-12" value="&lt;font style=&quot;font-size: 10px;&quot;&gt;Send TimeStamp&lt;/font&gt;" style="rounded=1;whiteSpace=wrap;html=1;" vertex="1" parent="hchk1diLV61uI37QfvOI-4">
          <mxGeometry x="110" y="45" width="120" height="60" as="geometry" />
        </mxCell>
        <mxCell id="hchk1diLV61uI37QfvOI-56" value="&lt;font style=&quot;font-size: 10px;&quot;&gt;mulai&lt;/font&gt;" style="text;html=1;align=center;verticalAlign=middle;whiteSpace=wrap;rounded=0;" vertex="1" parent="hchk1diLV61uI37QfvOI-4">
          <mxGeometry x="52.5" y="90" width="25" height="15" as="geometry" />
        </mxCell>
        <mxCell id="hchk1diLV61uI37QfvOI-5" value="Data Master" style="swimlane;startSize=20;horizontal=0;html=1;" vertex="1" parent="hchk1diLV61uI37QfvOI-3">
          <mxGeometry x="20" y="150" width="1460" height="150" as="geometry" />
        </mxCell>
        <mxCell id="hchk1diLV61uI37QfvOI-25" value="&lt;font style=&quot;font-size: 10px;&quot;&gt;POL.Magenta... get data master&lt;/font&gt;" style="rounded=1;whiteSpace=wrap;html=1;" vertex="1" parent="hchk1diLV61uI37QfvOI-5">
          <mxGeometry x="410" y="45" width="120" height="60" as="geometry" />
        </mxCell>
        <mxCell id="hchk1diLV61uI37QfvOI-62" value="data masternya isi apa aja? bentuknya gmn? kok get terupdate? isinya g cmn 1?" style="shape=note;strokeWidth=2;fontSize=14;size=20;whiteSpace=wrap;html=1;fillColor=#fff2cc;strokeColor=#d6b656;fontColor=#666600;" vertex="1" parent="hchk1diLV61uI37QfvOI-5">
          <mxGeometry x="250" y="25" width="130" height="100" as="geometry" />
        </mxCell>
        <mxCell id="hchk1diLV61uI37QfvOI-9" value="HCP Magenta" style="swimlane;startSize=20;horizontal=0;html=1;" vertex="1" parent="hchk1diLV61uI37QfvOI-3">
          <mxGeometry x="20" y="300" width="1460" height="150" as="geometry" />
        </mxCell>
        <mxCell id="hchk1diLV61uI37QfvOI-35" value="&lt;font style=&quot;font-size: 10px;&quot;&gt;Mendapatkan file dan menyimpan file prestamp&lt;/font&gt;" style="rounded=1;whiteSpace=wrap;html=1;" vertex="1" parent="hchk1diLV61uI37QfvOI-9">
          <mxGeometry x="690" y="45" width="120" height="60" as="geometry" />
        </mxCell>
        <mxCell id="hchk1diLV61uI37QfvOI-37" value="" style="shape=note;whiteSpace=wrap;html=1;backgroundOutline=1;darkOpacity=0.05;" vertex="1" parent="hchk1diLV61uI37QfvOI-9">
          <mxGeometry x="860" y="40" width="60" height="70" as="geometry" />
        </mxCell>
        <mxCell id="hchk1diLV61uI37QfvOI-39" value="" style="endArrow=none;dashed=1;html=1;dashPattern=1 3;strokeWidth=2;rounded=0;exitX=1;exitY=0.5;exitDx=0;exitDy=0;entryX=0;entryY=0.5;entryDx=0;entryDy=0;entryPerimeter=0;" edge="1" parent="hchk1diLV61uI37QfvOI-9" source="hchk1diLV61uI37QfvOI-35" target="hchk1diLV61uI37QfvOI-37">
          <mxGeometry width="50" height="50" relative="1" as="geometry">
            <mxPoint x="810" y="120" as="sourcePoint" />
            <mxPoint x="860" y="70" as="targetPoint" />
          </mxGeometry>
        </mxCell>
        <mxCell id="hchk1diLV61uI37QfvOI-40" value="&lt;font style=&quot;font-size: 10px;&quot;&gt;FDM Merchant......&lt;/font&gt;" style="text;html=1;align=center;verticalAlign=middle;whiteSpace=wrap;rounded=0;" vertex="1" parent="hchk1diLV61uI37QfvOI-9">
          <mxGeometry x="805" y="110" width="130" height="30" as="geometry" />
        </mxCell>
        <mxCell id="hchk1diLV61uI37QfvOI-61" value="namanya beda sama existing?" style="shape=note;strokeWidth=2;fontSize=14;size=20;whiteSpace=wrap;html=1;fillColor=#fff2cc;strokeColor=#d6b656;fontColor=#666600;" vertex="1" parent="hchk1diLV61uI37QfvOI-9">
          <mxGeometry x="935" y="35" width="90" height="100" as="geometry" />
        </mxCell>
        <mxCell id="hchk1diLV61uI37QfvOI-10" value="Magenta" style="swimlane;startSize=20;horizontal=0;html=1;" vertex="1" parent="hchk1diLV61uI37QfvOI-3">
          <mxGeometry x="20" y="450" width="1460" height="150" as="geometry" />
        </mxCell>
        <mxCell id="hchk1diLV61uI37QfvOI-16" style="edgeStyle=orthogonalEdgeStyle;rounded=0;orthogonalLoop=1;jettySize=auto;html=1;entryX=0;entryY=0.5;entryDx=0;entryDy=0;" edge="1" parent="hchk1diLV61uI37QfvOI-10" source="hchk1diLV61uI37QfvOI-14" target="hchk1diLV61uI37QfvOI-15">
          <mxGeometry relative="1" as="geometry" />
        </mxCell>
        <mxCell id="hchk1diLV61uI37QfvOI-14" value="&lt;font style=&quot;font-size: 10px;&quot;&gt;Magenta inquiry Data FDMID&lt;/font&gt;" style="rounded=1;whiteSpace=wrap;html=1;" vertex="1" parent="hchk1diLV61uI37QfvOI-10">
          <mxGeometry x="110" y="45" width="120" height="60" as="geometry" />
        </mxCell>
        <mxCell id="hchk1diLV61uI37QfvOI-24" style="edgeStyle=orthogonalEdgeStyle;rounded=0;orthogonalLoop=1;jettySize=auto;html=1;entryX=0;entryY=0.5;entryDx=0;entryDy=0;" edge="1" parent="hchk1diLV61uI37QfvOI-10" source="hchk1diLV61uI37QfvOI-15" target="hchk1diLV61uI37QfvOI-23">
          <mxGeometry relative="1" as="geometry" />
        </mxCell>
        <mxCell id="hchk1diLV61uI37QfvOI-15" value="&lt;font style=&quot;font-size: 10px;&quot;&gt;Hit service generate FDM PDF&lt;/font&gt;" style="rounded=1;whiteSpace=wrap;html=1;" vertex="1" parent="hchk1diLV61uI37QfvOI-10">
          <mxGeometry x="260" y="45" width="120" height="60" as="geometry" />
        </mxCell>
        <mxCell id="hchk1diLV61uI37QfvOI-23" value="&lt;font style=&quot;font-size: 10px;&quot;&gt;Magenta get S&amp;amp;K dan RIPLAY terupdate di Data Master&lt;/font&gt;" style="rounded=1;whiteSpace=wrap;html=1;" vertex="1" parent="hchk1diLV61uI37QfvOI-10">
          <mxGeometry x="410" y="45" width="120" height="60" as="geometry" />
        </mxCell>
        <mxCell id="hchk1diLV61uI37QfvOI-27" value="&lt;font style=&quot;font-size: 10px;&quot;&gt;Magenta request generate FDM PDF&lt;/font&gt;" style="rounded=1;whiteSpace=wrap;html=1;" vertex="1" parent="hchk1diLV61uI37QfvOI-10">
          <mxGeometry x="550" y="45" width="120" height="60" as="geometry" />
        </mxCell>
        <mxCell id="hchk1diLV61uI37QfvOI-33" value="&lt;font style=&quot;font-size: 10px;&quot;&gt;Mendapatkan file PDF dari i-text, simpan di HCP&lt;/font&gt;" style="rounded=1;whiteSpace=wrap;html=1;" vertex="1" parent="hchk1diLV61uI37QfvOI-10">
          <mxGeometry x="690" y="45" width="120" height="60" as="geometry" />
        </mxCell>
        <mxCell id="hchk1diLV61uI37QfvOI-53" style="edgeStyle=orthogonalEdgeStyle;rounded=0;orthogonalLoop=1;jettySize=auto;html=1;entryX=0;entryY=0.5;entryDx=0;entryDy=0;" edge="1" parent="hchk1diLV61uI37QfvOI-10" source="hchk1diLV61uI37QfvOI-49" target="hchk1diLV61uI37QfvOI-52">
          <mxGeometry relative="1" as="geometry" />
        </mxCell>
        <mxCell id="hchk1diLV61uI37QfvOI-49" value="&lt;font style=&quot;font-size: 10px;&quot;&gt;Menampilkan FDM PDF di tab dokumen tracking pengajuan &amp;amp; inquiry data merchant dengan flag &quot;FDM&quot;&lt;/font&gt;" style="rounded=1;whiteSpace=wrap;html=1;" vertex="1" parent="hchk1diLV61uI37QfvOI-10">
          <mxGeometry x="830" y="30" width="120" height="90" as="geometry" />
        </mxCell>
        <mxCell id="hchk1diLV61uI37QfvOI-55" style="edgeStyle=orthogonalEdgeStyle;rounded=0;orthogonalLoop=1;jettySize=auto;html=1;" edge="1" parent="hchk1diLV61uI37QfvOI-10" source="hchk1diLV61uI37QfvOI-52" target="hchk1diLV61uI37QfvOI-54">
          <mxGeometry relative="1" as="geometry" />
        </mxCell>
        <mxCell id="hchk1diLV61uI37QfvOI-52" value="&lt;span style=&quot;font-size: 10px;&quot;&gt;POL/Magenta... stamping docker&lt;/span&gt;" style="rounded=1;whiteSpace=wrap;html=1;" vertex="1" parent="hchk1diLV61uI37QfvOI-10">
          <mxGeometry x="970" y="45" width="120" height="60" as="geometry" />
        </mxCell>
        <mxCell id="hchk1diLV61uI37QfvOI-54" value="" style="ellipse;whiteSpace=wrap;html=1;aspect=fixed;" vertex="1" parent="hchk1diLV61uI37QfvOI-10">
          <mxGeometry x="1120" y="60" width="30" height="30" as="geometry" />
        </mxCell>
        <mxCell id="hchk1diLV61uI37QfvOI-58" value="&lt;font style=&quot;font-size: 10px;&quot;&gt;selesai&lt;/font&gt;" style="text;html=1;align=center;verticalAlign=middle;whiteSpace=wrap;rounded=0;" vertex="1" parent="hchk1diLV61uI37QfvOI-10">
          <mxGeometry x="1115" y="90" width="40" height="15" as="geometry" />
        </mxCell>
        <mxCell id="hchk1diLV61uI37QfvOI-60" value="riplay juga berarti?" style="shape=note;strokeWidth=2;fontSize=14;size=20;whiteSpace=wrap;html=1;fillColor=#fff2cc;strokeColor=#d6b656;fontColor=#666600;" vertex="1" parent="hchk1diLV61uI37QfvOI-10">
          <mxGeometry x="425" y="120" width="90" height="100" as="geometry" />
        </mxCell>
        <mxCell id="hchk1diLV61uI37QfvOI-6" value="I-text" style="swimlane;startSize=20;horizontal=0;html=1;" vertex="1" parent="hchk1diLV61uI37QfvOI-3">
          <mxGeometry x="20" y="600" width="1460" height="150" as="geometry" />
        </mxCell>
        <mxCell id="hchk1diLV61uI37QfvOI-29" value="&lt;font style=&quot;font-size: 10px;&quot;&gt;Generate FDM PDF&lt;/font&gt;" style="rounded=1;whiteSpace=wrap;html=1;" vertex="1" parent="hchk1diLV61uI37QfvOI-6">
          <mxGeometry x="550" y="45" width="120" height="60" as="geometry" />
        </mxCell>
        <mxCell id="hchk1diLV61uI37QfvOI-17" style="edgeStyle=orthogonalEdgeStyle;rounded=0;orthogonalLoop=1;jettySize=auto;html=1;entryX=0.5;entryY=0;entryDx=0;entryDy=0;" edge="1" parent="hchk1diLV61uI37QfvOI-3" source="hchk1diLV61uI37QfvOI-12" target="hchk1diLV61uI37QfvOI-14">
          <mxGeometry relative="1" as="geometry" />
        </mxCell>
        <mxCell id="hchk1diLV61uI37QfvOI-26" style="edgeStyle=orthogonalEdgeStyle;rounded=0;orthogonalLoop=1;jettySize=auto;html=1;entryX=0.5;entryY=1;entryDx=0;entryDy=0;" edge="1" parent="hchk1diLV61uI37QfvOI-3" source="hchk1diLV61uI37QfvOI-23" target="hchk1diLV61uI37QfvOI-25">
          <mxGeometry relative="1" as="geometry" />
        </mxCell>
        <mxCell id="hchk1diLV61uI37QfvOI-28" style="edgeStyle=orthogonalEdgeStyle;rounded=0;orthogonalLoop=1;jettySize=auto;html=1;entryX=0.5;entryY=0;entryDx=0;entryDy=0;" edge="1" parent="hchk1diLV61uI37QfvOI-3" source="hchk1diLV61uI37QfvOI-25" target="hchk1diLV61uI37QfvOI-27">
          <mxGeometry relative="1" as="geometry" />
        </mxCell>
        <mxCell id="hchk1diLV61uI37QfvOI-30" style="edgeStyle=orthogonalEdgeStyle;rounded=0;orthogonalLoop=1;jettySize=auto;html=1;entryX=0.5;entryY=0;entryDx=0;entryDy=0;" edge="1" parent="hchk1diLV61uI37QfvOI-3" source="hchk1diLV61uI37QfvOI-27" target="hchk1diLV61uI37QfvOI-29">
          <mxGeometry relative="1" as="geometry" />
        </mxCell>
        <mxCell id="hchk1diLV61uI37QfvOI-34" style="edgeStyle=orthogonalEdgeStyle;rounded=0;orthogonalLoop=1;jettySize=auto;html=1;entryX=0.5;entryY=1;entryDx=0;entryDy=0;" edge="1" parent="hchk1diLV61uI37QfvOI-3" source="hchk1diLV61uI37QfvOI-29" target="hchk1diLV61uI37QfvOI-33">
          <mxGeometry relative="1" as="geometry" />
        </mxCell>
        <mxCell id="hchk1diLV61uI37QfvOI-36" style="edgeStyle=orthogonalEdgeStyle;rounded=0;orthogonalLoop=1;jettySize=auto;html=1;entryX=0.5;entryY=1;entryDx=0;entryDy=0;" edge="1" parent="hchk1diLV61uI37QfvOI-3" source="hchk1diLV61uI37QfvOI-33" target="hchk1diLV61uI37QfvOI-35">
          <mxGeometry relative="1" as="geometry" />
        </mxCell>
        <mxCell id="hchk1diLV61uI37QfvOI-51" value="" style="endArrow=none;dashed=1;html=1;dashPattern=1 3;strokeWidth=2;rounded=0;exitX=0.5;exitY=0;exitDx=0;exitDy=0;entryX=0.5;entryY=1;entryDx=0;entryDy=0;entryPerimeter=0;" edge="1" parent="hchk1diLV61uI37QfvOI-3" source="hchk1diLV61uI37QfvOI-49" target="hchk1diLV61uI37QfvOI-37">
          <mxGeometry width="50" height="50" relative="1" as="geometry">
            <mxPoint x="840" y="385" as="sourcePoint" />
            <mxPoint x="890" y="385" as="targetPoint" />
          </mxGeometry>
        </mxCell>
      </root>
    </mxGraphModel>
  </diagram>
</mxfile>
